# xmcd
#
# Track frame offsets:
#	150
#	16461
#	32803
#	47390
#	65879
#	78218
#	90998
#	103706
#	118965
#	129304
#	141413
#
# Disc length: 2041 seconds
#
# Revision: 0
# Processed by: cddbd v1.5.2PL0 Copyright (c) Steve Scherf et al.
# Submitted via: dBpowerAMP V4.0
#
DISCID=9107f70b
DTITLE=Porter Wagoner - Best Of Grand Old Gospel 2008 [CD2]
DYEAR=2007
DGENRE=Country
TTITLE0=Mother Church Of Country Music
TTITLE1=Brother Harold Dee
TTITLE2=When My Time Comes To Go
TTITLE3=Just A Closer Walk With Thee
TTITLE4=Footprints In The Snow
TTITLE5=Peace In The Valley
TTITLE6=Rank Strangers
TTITLE7=Through The Eyes Of A Blind Man
TTITLE8=Singing On The Mountain
TTITLE9=When I Reach That City On The Hill
TTITLE10=Life Rides The Train
EXTD=
EXTT0=
EXTT1=
EXTT2=
EXTT3=
EXTT4=
EXTT5=
EXTT6=
EXTT7=
EXTT8=
EXTT9=
EXTT10=
PLAYORDER=
